<svg width="99" height="99" xmlns="http://www.w3.org/2000/svg" xmlns:xlink="http://www.w3.org/1999/xlink" xml:space="preserve" overflow="hidden"><defs><clipPath id="clip0"><rect x="1855" y="1014" width="99" height="99"/></clipPath></defs><g clip-path="url(#clip0)" transform="translate(-1855 -1014)"><path d="M1855 1063.5C1855 1036.16 1877.16 1014 1904.5 1014 1931.84 1014 1954 1036.16 1954 1063.5 1954 1090.84 1931.84 1113 1904.5 1113 1877.16 1113 1855 1090.84 1855 1063.5Z" fill="#56903A" fill-rule="evenodd"/><g><g><g><path d="M61.4999 64.9165 61.4999 47.8332 64.9165 47.8332 64.9165 34.1666 54.6665 34.1666 54.6665 47.8332 58.0832 47.8332 58.0832 64.9165 40.9999 64.9165 40.9999 27.3333 47.8332 27.3333 30.7499 10.25 13.6666 27.3333 20.5 27.3333 20.5 64.9165 13.6666 64.9165 13.6666 68.3332 71.7498 68.3332 71.7498 64.9165 61.4999 64.9165ZM23.9166 51.2499 23.9166 30.7499 37.5832 30.7499 37.5832 51.2499 23.9166 51.2499Z" fill="#FFFFFF" transform="matrix(1 0 0 1.0122 1864 1022)"/></g></g></g></g></svg>