<svg width="99" height="99" xmlns="http://www.w3.org/2000/svg" xmlns:xlink="http://www.w3.org/1999/xlink" xml:space="preserve" overflow="hidden"><defs><clipPath id="clip0"><rect x="1879" y="1045" width="99" height="99"/></clipPath></defs><g clip-path="url(#clip0)" transform="translate(-1879 -1045)"><path d="M1879 1094.5C1879 1067.16 1901.16 1045 1928.5 1045 1955.84 1045 1978 1067.16 1978 1094.5 1978 1121.84 1955.84 1144 1928.5 1144 1901.16 1144 1879 1121.84 1879 1094.5Z" fill="#6F4930" fill-rule="evenodd"/><g><g><g><path d="M43.7334 39.2917C48.5168 39.2917 52.9584 34.5084 52.9584 29.7251 52.9584 24.9417 48.5168 20.8417 43.7334 20.8417L30.7501 20.8417 30.7501 39.2917 43.7334 39.2917ZM44.4168 10.25C55.3501 10.25 65.2585 19.1334 65.2585 30.0667 65.2585 41.0001 55.0084 49.8834 44.0751 49.8834L30.7501 49.8834 30.7501 68.3335 20.1584 68.3335 20.1584 10.25 44.4168 10.25Z" fill="#FFFFFF" transform="matrix(1.0122 0 0 1 1887 1054)"/></g></g></g></g></svg>