<svg width="160" height="160" xmlns="http://www.w3.org/2000/svg" xmlns:xlink="http://www.w3.org/1999/xlink" xml:space="preserve" overflow="hidden"><g transform="translate(-220 -177)"><path d="M312.783 202.559C311.326 200.138 313.071 197.055 315.895 197.055L340.5 197.055C338.894 195.917 337.042 195.171 335.097 194.879L324.79 193.33C323.505 188.538 319.15 185 313.95 185 309.259 185 305.254 187.879 303.571 191.962 302.915 193.447 302.659 195.023 302.659 196.455 302.659 203.235 308.873 212.239 311.491 217.24 314.595 223.17 313.958 230.204 310.792 236.031 310.339 236.864 309.134 236.81 308.737 235.949 305.374 228.655 298.003 223.589 289.443 223.589 282.183 223.589 275.777 227.232 271.947 232.789 259.486 249.092 259.5 288.656 259.5 288.656L288.818 270.36 288.818 325.011 288.667 325.011C286.463 325.011 284.677 326.797 284.677 329.001L307.431 329.001C307.431 326.796 305.644 325.011 303.441 325.011L293.732 325.011 293.69 289.17C293.682 282.815 295.09 276.536 297.81 270.793L297.912 270.575C300.488 265.134 304.546 260.581 309.617 257.423L309.618 257.421C326.305 246.307 328.962 227.816 319.072 213.016Z" fill="#FB9A99"/></g></svg>