<svg width="99" height="99" xmlns="http://www.w3.org/2000/svg" xmlns:xlink="http://www.w3.org/1999/xlink" xml:space="preserve" overflow="hidden"><defs><clipPath id="clip0"><rect x="2267" y="1371" width="99" height="99"/></clipPath></defs><g clip-path="url(#clip0)" transform="translate(-2267 -1371)"><path d="M2267 1420.5C2267 1393.16 2289.16 1371 2316.5 1371 2343.84 1371 2366 1393.16 2366 1420.5 2366 1447.84 2343.84 1470 2316.5 1470 2289.16 1470 2267 1447.84 2267 1420.5Z" fill="#FC8EAC" fill-rule="evenodd"/><g><g><g><path d="M2323.55 1392.1C2322.8 1390.86 2323.7 1389.28 2325.15 1389.28L2337.76 1389.28C2336.93 1388.7 2335.98 1388.31 2334.99 1388.16L2329.7 1387.37C2329.05 1384.91 2326.81 1383.1 2324.15 1383.1 2321.75 1383.1 2319.69 1384.58 2318.83 1386.67 2318.49 1387.43 2318.36 1388.24 2318.36 1388.97 2318.36 1392.45 2321.55 1397.06 2322.89 1399.62 2324.48 1402.66 2324.15 1406.27 2322.53 1409.25 2322.3 1409.68 2321.68 1409.65 2321.48 1409.21 2319.75 1405.47 2315.98 1402.88 2311.59 1402.88 2307.87 1402.88 2304.59 1404.74 2302.62 1407.59 2296.24 1415.95 2296.24 1436.22 2296.24 1436.22L2311.27 1426.85 2311.27 1454.86 2311.19 1454.86C2310.06 1454.86 2309.15 1455.77 2309.15 1456.9L2320.81 1456.9C2320.81 1455.77 2319.89 1454.86 2318.76 1454.86L2313.79 1454.86 2313.77 1436.49C2313.76 1433.23 2314.48 1430.01 2315.88 1427.07L2315.93 1426.96C2317.25 1424.17 2319.33 1421.84 2321.93 1420.22L2321.93 1420.22C2330.48 1414.52 2331.84 1405.04 2326.77 1397.46Z" fill="#FFFFFF"/></g></g></g></g></svg>