<svg width="99" height="99" xmlns="http://www.w3.org/2000/svg" xmlns:xlink="http://www.w3.org/1999/xlink" xml:space="preserve" overflow="hidden"><defs><clipPath id="clip0"><rect x="1871" y="1058" width="99" height="99"/></clipPath></defs><g clip-path="url(#clip0)" transform="translate(-1871 -1058)"><path d="M1871 1107.5C1871 1080.16 1893.16 1058 1920.5 1058 1947.84 1058 1970 1080.16 1970 1107.5 1970 1134.84 1947.84 1157 1920.5 1157 1893.16 1157 1871 1134.84 1871 1107.5Z" fill="#56903A" fill-rule="evenodd"/><g><g><g><path d="M1900.79 1120.64 1905.97 1123.41 1908.74 1123.41 1913.93 1120.64 1917.04 1120.64 1922.23 1123.41 1925 1123.41 1930.18 1120.64 1932.95 1120.64 1938.14 1123.41 1940.9 1123.41 1946.09 1120.64 1946.78 1120.64C1947.13 1120.3 1947.13 1120.3 1947.48 1120.3 1949.2 1118.57 1950.24 1116.15 1950.24 1113.73 1950.24 1108.19 1945.75 1103.7 1940.21 1103.7L1939.18 1103.7C1937.79 1108.54 1932.95 1108.88 1932.95 1108.88L1910.12 1108.88 1908.4 1107.5 1912.89 1099.89 1917.73 1102.66C1920.85 1104.73 1922.23 1101.97 1922.23 1101.97L1927.42 1094.01C1929.49 1090.55 1925 1087.44 1922.92 1091.25L1919.46 1097.13 1911.16 1092.28C1905.28 1088.83 1902.86 1094.36 1902.86 1094.36L1896.29 1105.43C1895.25 1107.85 1896.29 1108.88 1896.29 1108.88L1893.18 1108.88 1893.18 1123.06 1898.37 1120.3 1900.79 1120.3 1900.79 1120.64Z" fill="#FFFFFF"/><path d="M1948.86 1125.83 1946.44 1125.83 1940.9 1128.6 1938.14 1128.6 1932.95 1125.83 1930.18 1125.83 1925 1128.6 1922.23 1128.6 1917.04 1125.83 1914.27 1125.83 1908.74 1128.6 1906.32 1128.6 1900.79 1125.83 1898.02 1125.83 1892.83 1128.6 1892.83 1133.78 1898.02 1131.02 1900.79 1131.02 1906.32 1133.78 1908.74 1133.78 1914.27 1131.02 1917.04 1131.02 1922.23 1133.78 1925 1133.78 1930.18 1131.02 1932.95 1131.02 1938.14 1133.78 1940.9 1133.78 1946.44 1131.02 1948.86 1131.02 1951.62 1132.4 1951.62 1127.21Z" fill="#FFFFFF"/><path d="M1919.46 1082.95C1919.46 1085.81 1917.14 1088.13 1914.27 1088.13 1911.41 1088.13 1909.09 1085.81 1909.09 1082.95 1909.09 1080.08 1911.41 1077.76 1914.27 1077.76 1917.14 1077.76 1919.46 1080.08 1919.46 1082.95Z" fill="#FFFFFF"/></g></g></g></g></svg>