<svg width="24" height="24" xmlns="http://www.w3.org/2000/svg" xmlns:xlink="http://www.w3.org/1999/xlink" xml:space="preserve" overflow="hidden"><g transform="translate(-628 -348)"><path d="M634.3 363.8 635.8 364.6 636.6 364.6 638.1 363.8 639 363.8 640.5 364.6 641.3 364.6 642.8 363.8 643.6 363.8 645.1 364.6 645.9 364.6 647.4 363.8 647.6 363.8C647.7 363.7 647.7 363.7 647.8 363.7 648.3 363.2 648.6 362.5 648.6 361.8 648.6 360.2 647.3 358.9 645.7 358.9L645.4 358.9C645 360.3 643.6 360.4 643.6 360.4L637 360.4 636.5 360 637.8 357.8 639.2 358.6C640.1 359.2 640.5 358.4 640.5 358.4L642 356.1C642.6 355.1 641.3 354.2 640.7 355.3L639.7 357 637.3 355.6C635.6 354.6 634.9 356.2 634.9 356.2L633 359.4C632.7 360.1 633 360.4 633 360.4L632.1 360.4 632.1 364.5 633.6 363.7 634.3 363.7 634.3 363.8Z" fill="#018571"/><path d="M648.2 365.3 647.5 365.3 645.9 366.1 645.1 366.1 643.6 365.3 642.8 365.3 641.3 366.1 640.5 366.1 639 365.3 638.2 365.3 636.6 366.1 635.9 366.1 634.3 365.3 633.5 365.3 632 366.1 632 367.6 633.5 366.8 634.3 366.8 635.9 367.6 636.6 367.6 638.2 366.8 639 366.8 640.5 367.6 641.3 367.6 642.8 366.8 643.6 366.8 645.1 367.6 645.9 367.6 647.5 366.8 648.2 366.8 649 367.2 649 365.7Z" fill="#018571"/><path d="M639.7 352.9C639.7 353.728 639.028 354.4 638.2 354.4 637.372 354.4 636.7 353.728 636.7 352.9 636.7 352.072 637.372 351.4 638.2 351.4 639.028 351.4 639.7 352.072 639.7 352.9Z" fill="#018571"/></g></svg>