<svg width="99" height="99" xmlns="http://www.w3.org/2000/svg" xmlns:xlink="http://www.w3.org/1999/xlink" xml:space="preserve" overflow="hidden"><defs><clipPath id="clip0"><rect x="1842" y="1014" width="99" height="99"/></clipPath></defs><g clip-path="url(#clip0)" transform="translate(-1842 -1014)"><path d="M1842 1063.5C1842 1036.16 1864.16 1014 1891.5 1014 1918.84 1014 1941 1036.16 1941 1063.5 1941 1090.84 1918.84 1113 1891.5 1113 1864.16 1113 1842 1090.84 1842 1063.5Z" fill="#6F4930" fill-rule="evenodd"/><g><g><g><path d="M56.0334 68.3335 58.4251 68.3335 61.1585 64.5751 61.1585 11.9584 58.4251 10.25 53.3001 10.25 53.3001 12.9834 51.2501 12.9834 51.2501 44.4168 56.0334 44.4168Z" fill="#FFFFFF" transform="matrix(1.01219 0 0 1 1850 1022)"/><path d="M30.7501 68.3335 34.1667 68.3335 34.1667 34.1667 37.5834 31.4334 40.6584 28.7001 40.6584 10.25 37.5834 10.25 37.5834 24.9417 34.1667 25.9667 34.1667 10.25 30.7501 10.25 30.7501 25.9667 26.9917 24.9417 26.9917 10.25 24.2584 10.25 24.2584 28.7001 26.9917 31.4334 30.7501 34.1667Z" fill="#FFFFFF" transform="matrix(1.01219 0 0 1 1850 1022)"/></g></g></g></g></svg>