<svg width="24" height="24" xmlns="http://www.w3.org/2000/svg" xmlns:xlink="http://www.w3.org/1999/xlink" xml:space="preserve" overflow="hidden"><g transform="translate(-628 -348)"><path d="M644.4 368 645.1 368 645.9 366.9 645.9 351.5 645.1 351 643.6 351 643.6 351.8 643 351.8 643 361 644.4 361Z" fill="#DFC27D"/><path d="M637 368 638 368 638 358 639 357.2 639.9 356.4 639.9 351 639 351 639 355.3 638 355.6 638 351 637 351 637 355.6 635.9 355.3 635.9 351 635.1 351 635.1 356.4 635.9 357.2 637 358Z" fill="#DFC27D"/></g></svg>