<svg width="99" height="99" xmlns="http://www.w3.org/2000/svg" xmlns:xlink="http://www.w3.org/1999/xlink" xml:space="preserve" overflow="hidden"><defs><clipPath id="clip0"><rect x="1887" y="1091" width="99" height="99"/></clipPath></defs><g clip-path="url(#clip0)" transform="translate(-1887 -1091)"><path d="M1887 1140.5C1887 1113.16 1909.16 1091 1936.5 1091 1963.84 1091 1986 1113.16 1986 1140.5 1986 1167.84 1963.84 1190 1936.5 1190 1909.16 1190 1887 1167.84 1887 1140.5Z" fill="#6F4930" fill-rule="evenodd"/><g><g><g><path d="M71.7498 39.2916 56.0332 39.2916 50.9082 25.9666 61.4999 25.9666 61.4999 20.8416 24.2583 20.8416 24.2583 25.9666 34.8499 25.9666 29.7249 39.2916 13.6666 39.2916 13.6666 44.4166 26.9916 44.4166 21.8666 57.7415 26.9916 57.7415 32.1166 44.4166 53.2999 44.4166 58.4249 57.7415 63.5498 57.7415 58.4249 44.4166 71.7498 44.4166 71.7498 39.2916ZM34.8499 39.2916 39.9749 25.9666 45.0999 25.9666 50.2249 39.2916 34.8499 39.2916Z" fill="#FFFFFF" transform="matrix(1 0 0 1 1896 1099)"/></g></g></g></g></svg>