<svg width="99" height="99" xmlns="http://www.w3.org/2000/svg" xmlns:xlink="http://www.w3.org/1999/xlink" xml:space="preserve" overflow="hidden"><defs><clipPath id="clip0"><rect x="1885" y="1095" width="99" height="99"/></clipPath></defs><g clip-path="url(#clip0)" transform="translate(-1885 -1095)"><path d="M1885 1144.5C1885 1117.16 1907.16 1095 1934.5 1095 1961.84 1095 1984 1117.16 1984 1144.5 1984 1171.84 1961.84 1194 1934.5 1194 1907.16 1194 1885 1171.84 1885 1144.5Z" fill="#6F4930" fill-rule="evenodd"/><g><g><g><path d="M66.6248 44.4166 47.8332 32.1166 47.8332 20.8416 53.2999 20.8416 53.2999 23.5749 61.1582 23.5749 61.1582 12.9833 53.2999 12.9833 53.2999 10.25 47.8332 10.25 45.4416 10.25 45.4416 30.4083 42.7082 28.6999 18.7916 44.4166 16.4 44.4166 16.4 47.1499 21.5249 47.1499 21.5249 68.3332 37.5832 68.3332 37.5832 52.6165 47.8332 52.6165 47.8332 68.3332 63.8915 68.3332 63.8915 47.1499 69.0165 47.1499 69.0165 44.4166Z" fill="#FFFFFF" transform="matrix(1.0122 0 0 1 1893 1103)"/></g></g></g></g></svg>