<svg width="99" height="99" xmlns="http://www.w3.org/2000/svg" xmlns:xlink="http://www.w3.org/1999/xlink" xml:space="preserve" overflow="hidden"><defs><clipPath id="clip0"><rect x="1918" y="1067" width="99" height="99"/></clipPath></defs><g clip-path="url(#clip0)" transform="translate(-1918 -1067)"><path d="M1918 1116.5C1918 1089.16 1940.16 1067 1967.5 1067 1994.84 1067 2017 1089.16 2017 1116.5 2017 1143.84 1994.84 1166 1967.5 1166 1940.16 1166 1918 1143.84 1918 1116.5Z" fill="#6F4930" fill-rule="evenodd"/><g><g><g><path d="M42.3667 12.3 46.4668 12.3 46.4668 66.2835 42.3667 66.2835Z" fill="#FFFFFF" transform="matrix(1 0 0 1.0122 1923 1076)"/><path d="M71.7501 23.9167 54.6668 23.9167 54.6668 45.4418 58.0834 45.4418 58.0834 65.9418 68.3335 65.9418 68.3335 45.4418 71.7501 45.4418Z" fill="#FFFFFF" transform="matrix(1 0 0 1.0122 1923 1076)"/><path d="M30.7501 23.9167 20.5 23.9167 13.6667 53.9834 20.5 53.9834 20.5 65.9418 30.7501 65.9418 30.7501 53.9834 37.5834 53.9834Z" fill="#FFFFFF" transform="matrix(1 0 0 1.0122 1923 1076)"/><path d="M26.6501 20.1584 24.6 20.1584C22.8917 20.1584 21.525 18.7917 21.525 17.0834L21.525 15.375C21.525 13.6667 22.8917 12.3 24.6 12.3L26.3084 12.3C28.0167 12.3 29.3834 13.6667 29.3834 15.375L29.3834 17.7667C29.7251 18.7917 28.3584 20.1584 26.6501 20.1584Z" fill="#FFFFFF" transform="matrix(1 0 0 1.0122 1923 1076)"/><path d="M64.2335 20.1584 61.8418 20.1584C60.1335 20.1584 58.7668 18.7917 58.7668 17.0834L58.7668 15.375C58.7668 13.6667 60.1335 12.3 61.8418 12.3L64.2335 12.3C65.9418 12.3 67.3085 13.6667 67.3085 15.375L67.3085 17.7667C67.3085 18.7917 65.9418 20.1584 64.2335 20.1584Z" fill="#FFFFFF" transform="matrix(1 0 0 1.0122 1923 1076)"/></g></g></g></g></svg>