<svg width="24" height="24" xmlns="http://www.w3.org/2000/svg" xmlns:xlink="http://www.w3.org/1999/xlink" xml:space="preserve" overflow="hidden"><g transform="translate(-628 -348)"><path d="M640.4 351.6 641.6 351.6 641.6 367.4 640.4 367.4Z" fill="#DFC27D"/><path d="M649 355 644 355 644 361.3 645 361.3 645 367.3 648 367.3 648 361.3 649 361.3Z" fill="#DFC27D"/><path d="M637 355 634 355 632 363.8 634 363.8 634 367.3 637 367.3 637 363.8 639 363.8Z" fill="#DFC27D"/><path d="M635.8 353.9 635.2 353.9C634.7 353.9 634.3 353.5 634.3 353L634.3 352.5C634.3 352 634.7 351.6 635.2 351.6L635.7 351.6C636.2 351.6 636.6 352 636.6 352.5L636.6 353.2C636.7 353.5 636.3 353.9 635.8 353.9Z" fill="#DFC27D"/><path d="M646.8 353.9 646.1 353.9C645.6 353.9 645.2 353.5 645.2 353L645.2 352.5C645.2 352 645.6 351.6 646.1 351.6L646.8 351.6C647.3 351.6 647.7 352 647.7 352.5L647.7 353.2C647.7 353.5 647.3 353.9 646.8 353.9Z" fill="#DFC27D"/></g></svg>