<svg width="24" height="24" xmlns="http://www.w3.org/2000/svg" xmlns:xlink="http://www.w3.org/1999/xlink" xml:space="preserve" overflow="hidden"><g transform="translate(-628 -348)"><path d="M637.5 353.9C637.6 353.7 637.4 353.5 637.2 353.4L636.1 353.2C635.9 353.2 635.7 353.3 635.6 353.5L634.7 357.3C634.7 357.5 634.8 357.7 635 357.8L636.1 358C636.3 358.1 636.5 357.9 636.6 357.7L637.5 353.9Z" fill="#80CDC1"/><path d="M635.5 366.9 635.5 367.1C635.5 367.6 635.9 368 636.4 368 636.8 368 637.2 367.7 637.3 367.3L638.9 360.6 640.4 367.2C640.5 367.6 640.9 367.9 641.3 367.9 641.8 367.9 642.2 367.5 642.2 367 642.2 366.9 642.2 366.9 642.2 366.8L640.2 358 640.4 357.2 640.5 357.8C640.6 358.2 641 358.2 641 358.2L643.2 358.8 643.3 358.8C643.7 358.8 643.9 358.5 643.9 358.2 643.9 357.9 643.7 357.6 643.4 357.6L641.5 357.1 641 355C640.7 354.1 639.3 354.1 639.3 354.1 638.7 354.1 638.3 355 638.3 355L635.5 366.9Z" fill="#80CDC1"/><path d="M640.8 353.3 640.2 353.3C639.7 353.3 639.3 352.9 639.3 352.4L639.3 351.9C639.3 351.4 639.7 351 640.2 351L640.8 351C641.3 351 641.7 351.4 641.7 351.9L641.7 352.5C641.7 352.9 641.3 353.3 640.8 353.3" fill="#80CDC1"/><path d="M645.3 354.9 646.2 354.9 646.2 368 645.3 368Z" fill="#80CDC1"/></g></svg>