<svg width="24" height="24" xmlns="http://www.w3.org/2000/svg" xmlns:xlink="http://www.w3.org/1999/xlink" xml:space="preserve" overflow="hidden"><g transform="translate(-628 -348)"><path d="M647.5 361 642 357.4 642 354.1 643.6 354.1 643.6 354.9 645.9 354.9 645.9 351.8 643.6 351.8 643.6 351 642 351 641.3 351 641.3 356.9 640.5 356.4 633.5 361 632.8 361 632.8 361.8 634.3 361.8 634.3 368 646.7 368 646.7 361.8 648.2 361.8 648.2 361Z" fill="#A6611A"/><path d="M642 365.7 640.5 367.2 639 367.2 639.7 362.6 639 362.6 639.7 361.8 642 361.8 641.3 362.6 640.8 365.7Z" fill="#A6611A"/><path d="M642 359.9 642 360.6 642 361 641.6 361 640.9 361 640.5 361 640.5 360.6 640.5 359.5 640.9 359.5 641.6 359.5 642 359.5Z" fill="#A6611A"/></g></svg>