<svg width="99" height="99" xmlns="http://www.w3.org/2000/svg" xmlns:xlink="http://www.w3.org/1999/xlink" xml:space="preserve" overflow="hidden"><defs><clipPath id="clip0"><rect x="1935" y="1097" width="99" height="99"/></clipPath></defs><g clip-path="url(#clip0)" transform="translate(-1935 -1097)"><path d="M1935 1146.5C1935 1119.16 1957.16 1097 1984.5 1097 2011.84 1097 2034 1119.16 2034 1146.5 2034 1173.84 2011.84 1196 1984.5 1196 1957.16 1196 1935 1173.84 1935 1146.5Z" fill="#6F4930" fill-rule="evenodd"/><g><g><g><path d="M2009.62 1150.42 1990.83 1138.12 1990.83 1126.84 1996.3 1126.84 1996.3 1129.57 2004.16 1129.57 2004.16 1118.98 1996.3 1118.98 1996.3 1116.25 1990.83 1116.25 1988.44 1116.25 1988.44 1136.41 1985.71 1134.7 1961.79 1150.42 1959.4 1150.42 1959.4 1153.15 1964.52 1153.15 1964.52 1174.33 2006.89 1174.33 2006.89 1153.15 2012.02 1153.15 2012.02 1150.42Z"/><path d="M1990.83 1166.47 1985.71 1171.6 1980.58 1171.6 1982.97 1155.88 1980.58 1155.88 1982.97 1153.15 1990.83 1153.15 1988.44 1155.88 1986.73 1166.47Z" fill="#00ED57"/><path d="M1990.83 1146.66 1990.83 1149.05 1990.83 1150.42 1989.47 1150.42 1987.07 1150.42 1985.71 1150.42 1985.71 1149.05 1985.71 1145.29 1987.07 1145.29 1989.47 1145.29 1990.83 1145.29Z" fill="#00ED57"/></g></g></g></g></svg>