<svg width="99" height="99" xmlns="http://www.w3.org/2000/svg" xmlns:xlink="http://www.w3.org/1999/xlink" xml:space="preserve" overflow="hidden"><defs><clipPath id="clip0"><rect x="1879" y="1143" width="99" height="99"/></clipPath></defs><g clip-path="url(#clip0)" transform="translate(-1879 -1143)"><path d="M1879 1192.5C1879 1165.16 1901.16 1143 1928.5 1143 1955.84 1143 1978 1165.16 1978 1192.5 1978 1219.84 1955.84 1242 1928.5 1242 1901.16 1242 1879 1219.84 1879 1192.5Z" fill="#56903A" fill-rule="evenodd"/><g><g><g><path d="M22.55 18.45 34.1667 21.1834 39.9751 14.0084 42.7084 14.0084 37.5834 22.55 71.7501 31.7751 69.0168 41.0001 33.8251 31.4334C20.1584 27.6751 22.55 18.45 22.55 18.45" fill="#FFFFFF" transform="matrix(1 0 0 1.0122 1887 1151)"/><path d="M13.6667 43.7334 13.6667 64.5751 21.525 62.1835 32.1167 64.5751 42.7084 62.1835 53.3001 64.5751 63.8918 62.1835 71.7501 64.5751 71.7501 59.4501Z" fill="#FFFFFF" transform="matrix(1 0 0 1.0122 1887 1151)"/><path d="M13.6667 30.4084 13.6667 33.1417 37.5834 40.6584 37.5834 38.2667Z" fill="#FFFFFF" transform="matrix(1 0 0 1.0122 1887 1151)"/><path d="M53.3001 43.7334 53.3001 45.7834 71.7501 51.5918 71.7501 48.5168Z" fill="#FFFFFF" transform="matrix(1 0 0 1.0122 1887 1151)"/><path d="M45.4418 38.2667C42.3667 38.2667 40.3167 40.6584 40.3167 43.3918 40.3167 46.4668 42.7084 48.5168 45.4418 48.5168 48.5168 48.5168 50.5668 46.1251 50.5668 43.3918 50.5668 40.6584 48.1751 38.2667 45.4418 38.2667Z" fill="#FFFFFF" transform="matrix(1 0 0 1.0122 1887 1151)"/></g></g></g></g></svg>