<svg width="99" height="99" xmlns="http://www.w3.org/2000/svg" xmlns:xlink="http://www.w3.org/1999/xlink" xml:space="preserve" overflow="hidden"><defs><clipPath id="clip0"><rect x="1878" y="1108" width="99" height="99"/></clipPath></defs><g clip-path="url(#clip0)" transform="translate(-1878 -1108)"><path d="M1878 1157.5C1878 1130.16 1900.16 1108 1927.5 1108 1954.84 1108 1977 1130.16 1977 1157.5 1977 1184.84 1954.84 1207 1927.5 1207 1900.16 1207 1878 1184.84 1878 1157.5Z" fill="#6F4930" fill-rule="evenodd"/><g><g><g><path d="M1942.69 1180.89 1923.9 1143.31 1905.79 1180.89 1900.67 1180.89 1900.67 1183.28 1947.47 1183.28 1947.47 1180.89 1942.69 1180.89ZM1912.97 1180.89 1923.9 1160.05 1934.83 1180.89 1912.97 1180.89Z" fill="#FFFFFF"/><path d="M1931.07 1136.47 1929.02 1140.57 1947.47 1176.11 1951.23 1176.11Z" fill="#FFFFFF"/><path d="M1938.93 1129.3 1936.88 1133.4 1954.99 1168.59 1958.75 1168.59Z" fill="#FFFFFF"/></g></g></g></g></svg>