<svg width="99" height="99" xmlns="http://www.w3.org/2000/svg" xmlns:xlink="http://www.w3.org/1999/xlink" xml:space="preserve" overflow="hidden"><defs><clipPath id="clip0"><rect x="1851" y="1068" width="99" height="99"/></clipPath></defs><g clip-path="url(#clip0)" transform="translate(-1851 -1068)"><path d="M1851 1117.5C1851 1090.16 1873.16 1068 1900.5 1068 1927.84 1068 1950 1090.16 1950 1117.5 1950 1144.84 1927.84 1167 1900.5 1167 1873.16 1167 1851 1144.84 1851 1117.5Z" fill="#6F4930" fill-rule="evenodd"/><g><g><g><path d="M66.6251 61.5001 42.7084 13.6667 18.7917 61.5001 13.6667 61.5001 13.6667 64.9168 71.7501 64.9168 71.7501 61.5001 66.6251 61.5001ZM29.3834 61.5001 42.7084 35.1917 56.0334 61.5001 29.3834 61.5001Z" fill="#FFFFFF" transform="matrix(1.01219 0 0 1 1859 1077)"/></g></g></g></g></svg>