<svg width="99" height="99" xmlns="http://www.w3.org/2000/svg" xmlns:xlink="http://www.w3.org/1999/xlink" xml:space="preserve" overflow="hidden"><g transform="translate(-1935 -1024)"><path d="M1935 1073.5C1935 1046.16 1957.16 1024 1984.5 1024 2011.84 1024 2034 1046.16 2034 1073.5 2034 1100.84 2011.84 1123 1984.5 1123 1957.16 1123 1935 1100.84 1935 1073.5Z" fill="#56903A" fill-rule="evenodd"/><g><g><g><path d="M1976.46 1053.16C1976.8 1052.48 1976.12 1051.79 1975.43 1051.45L1971.67 1050.77C1970.99 1050.77 1970.31 1051.11 1969.97 1051.79L1966.89 1064.78C1966.89 1065.46 1967.23 1066.14 1967.92 1066.48L1971.67 1067.17C1972.36 1067.51 1973.04 1066.83 1973.38 1066.14L1976.46 1053.16Z" fill="#FFFFFF"/><path d="M1969.62 1097.58 1969.62 1098.26C1969.62 1099.97 1970.99 1101.33 1972.7 1101.33 1974.07 1101.33 1975.43 1100.31 1975.77 1098.94L1981.24 1076.05 1986.37 1098.6C1986.71 1099.97 1988.07 1100.99 1989.44 1100.99 1991.15 1100.99 1992.52 1099.63 1992.52 1097.92 1992.52 1097.58 1992.52 1097.58 1992.52 1097.23L1985.68 1067.17 1986.37 1064.43 1986.71 1066.48C1987.05 1067.85 1988.42 1067.85 1988.42 1067.85L1995.93 1069.9 1996.28 1069.9C1997.64 1069.9 1998.32 1068.88 1998.32 1067.85 1998.32 1066.83 1997.64 1065.8 1996.62 1065.8L1990.12 1064.09 1988.42 1056.92C1987.39 1053.84 1982.61 1053.84 1982.61 1053.84 1980.56 1053.84 1979.19 1056.92 1979.19 1056.92L1969.62 1097.58Z" fill="#FFFFFF"/><path d="M1987.73 1051.11 1985.68 1051.11C1983.97 1051.11 1982.61 1049.74 1982.61 1048.03L1982.61 1046.33C1982.61 1044.62 1983.97 1043.25 1985.68 1043.25L1987.73 1043.25C1989.44 1043.25 1990.81 1044.62 1990.81 1046.33L1990.81 1048.38C1990.81 1049.74 1989.44 1051.11 1987.73 1051.11" fill="#FFFFFF"/><path d="M2003.11 1056.58 2006.18 1056.58 2006.18 1101.33 2003.11 1101.33Z" fill="#FFFFFF"/></g></g></g></g></svg>